# xmcd
#
# Track frame offsets: 
#        150
#        16100
#        34872
#        51750
#        65542
#        78480
#        94365
#        110667
#        127137
#        142757
#        159445
#
# Disc length: 2359 seconds
#
# Revision: 0
# Processed by: cddbd v1.5.2PL0 Copyright (c) Steve Scherf et al.
# Submitted via: ExactAudioCopy v1.0b3
#
DISCID=9009350b
DTITLE=Juice Newton - Old Flame
DYEAR=1985
DGENRE=Country
TTITLE0=Cheap Love
TTITLE1=You Make Me Want To Make You Mine
TTITLE2=Hurt
TTITLE3=Old Flame
TTITLE4=Stuck In The Middle With You
TTITLE5=Feel A Whole Lot Better
TTITLE6=What Can I Do With My Heart
TTITLE7=With You
TTITLE8=One Touch
TTITLE9=Let Your Woman Take Care Of You
TTITLE10=Juice Newton and Eddie Rabbitt - Both To Each Other (Friends and 
TTITLE10=Lovers)
EXTD=
EXTT0=
EXTT1=
EXTT2=
EXTT3=
EXTT4=
EXTT5=
EXTT6=
EXTT7=
EXTT8=
EXTT9=
EXTT10=
PLAYORDER=
